<svg xmlns="http://www.w3.org/2000/svg" xmlns:xlink="http://www.w3.org/1999/xlink">
	<defs>
		<symbol id="errors" fill="none" viewBox="0 0 24 24" stroke-width="1.5" stroke="currentColor">
			<path stroke-linecap="round" stroke-linejoin="round"
				d="M9.75 9.75l4.5 4.5m0-4.5l-4.5 4.5M21 12a9 9 0 11-18 0 9 9 0 0118 0z" />
		</symbol>
		<symbol id="pref" fill="none" viewBox="0 0 24 24" stroke-width="1.5" stroke="currentColor">
			<path stroke-linecap="round" stroke-linejoin="round"
				d="M9.594 3.94c.09-.542.56-.94 1.11-.94h2.593c.55 0 1.02.398 1.11.94l.213 1.281c.063.374.313.686.645.87.074.04.147.083.22.127.324.196.72.257 1.075.124l1.217-.456a1.125 1.125 0 011.37.49l1.296 2.247a1.125 1.125 0 01-.26 1.431l-1.003.827c-.293.24-.438.613-.431.992a6.759 6.759 0 010 .255c-.007.378.138.75.43.99l1.005.828c.424.35.534.954.26 1.43l-1.298 2.247a1.125 1.125 0 01-1.369.491l-1.217-.456c-.355-.133-.75-.072-1.076.124a6.57 6.57 0 01-.22.128c-.331.183-.581.495-.644.869l-.213 1.28c-.09.543-.56.941-1.11.941h-2.594c-.55 0-1.02-.398-1.11-.94l-.213-1.281c-.062-.374-.312-.686-.644-.87a6.52 6.52 0 01-.22-.127c-.325-.196-.72-.257-1.076-.124l-1.217.456a1.125 1.125 0 01-1.369-.49l-1.297-2.247a1.125 1.125 0 01.26-1.431l1.004-.827c.292-.24.437-.613.43-.992a6.932 6.932 0 010-.255c.007-.378-.138-.75-.43-.99l-1.004-.828a1.125 1.125 0 01-.26-1.43l1.297-2.247a1.125 1.125 0 011.37-.491l1.216.456c.356.133.751.072 1.076-.124.072-.044.146-.087.22-.128.332-.183.582-.495.644-.869l.214-1.281z" />
			<path stroke-linecap="round" stroke-linejoin="round" d="M15 12a3 3 0 11-6 0 3 3 0 016 0z" />
		</symbol>
		<symbol id="quit" fill="none" viewBox="0 0 24 24" stroke-width="1.5" stroke="currentColor">
			<path stroke-linecap="round" stroke-linejoin="round" d="M6 18L18 6M6 6l12 12" />
		</symbol>
		<symbol id="cmd" fill="none" viewBox="0 0 24 24" stroke-width="1.5" stroke="currentColor">
			<path stroke-linecap="round" stroke-linejoin="round"
				d="M6.75 7.5l3 2.25-3 2.25m4.5 0h3m-9 8.25h13.5A2.25 2.25 0 0021 18V6a2.25 2.25 0 00-2.25-2.25H5.25A2.25 2.25 0 003 6v12a2.25 2.25 0 002.25 2.25z" />
		</symbol>
		<symbol id="check" fill="none" viewBox="0 0 24 24" stroke-width="1.5" stroke="currentColor">
			<path stroke-linecap="round" stroke-linejoin="round" d="M4.5 12.75l6 6 9-13.5" />
		</symbol>
		<symbol id="sync" fill="none" viewBox="0 0 24 24" stroke-width="1.5" stroke="currentColor">
			<path stroke-linecap="round" stroke-linejoin="round"
				d="M16.023 9.348h4.992v-.001M2.985 19.644v-4.992m0 0h4.992m-4.993 0l3.181 3.183a8.25 8.25 0 0013.803-3.7M4.031 9.865a8.25 8.25 0 0113.803-3.7l3.181 3.182m0-4.991v4.99" />
		</symbol>
		<symbol id="home" fill="none" viewBox="0 0 24 24" stroke-width="1.5" stroke="currentColor">
			<path stroke-linecap="round" stroke-linejoin="round"
				d="M2.25 12l8.954-8.955c.44-.439 1.152-.439 1.591 0L21.75 12M4.5 9.75v10.125c0 .621.504 1.125 1.125 1.125H9.75v-4.875c0-.621.504-1.125 1.125-1.125h2.25c.621 0 1.125.504 1.125 1.125V21h4.125c.621 0 1.125-.504 1.125-1.125V9.75M8.25 21h8.25" />
		</symbol>
		<symbol id="play" fill="none" viewBox="0 0 24 24" stroke-width="1.5" stroke="currentColor">
			<path stroke-linecap="round" stroke-linejoin="round"
				d="M5.25 5.653c0-.856.917-1.398 1.667-.986l11.54 6.348a1.125 1.125 0 010 1.971l-11.54 6.347a1.125 1.125 0 01-1.667-.985V5.653z" />
		</symbol>
		<svg id="pause" fill="none" viewBox="0 0 24 24" stroke-width="1.5" stroke="currentColor">
			<path stroke-linecap="round" stroke-linejoin="round" d="M15.75 5.25v13.5m-7.5-13.5v13.5" />
		</svg>
		<svg id="save" fill="none" viewBox="0 0 24 24" stroke-width="1.5" stroke="currentColor">
			<path stroke-linecap="round" stroke-linejoin="round"
				d="M12 9.75v6.75m0 0l-3-3m3 3l3-3m-8.25 6a4.5 4.5 0 01-1.41-8.775 5.25 5.25 0 0110.233-2.33 3 3 0 013.758 3.848A3.752 3.752 0 0118 19.5H6.75z" />
		</svg>
		<symbol id="warn" fill="none" viewBox="0 0 24 24" stroke-width="1.5" stroke="currentColor">
			<path stroke-linecap="round" stroke-linejoin="round"
				d="M12 9v3.75m-9.303 3.376c-.866 1.5.217 3.374 1.948 3.374h14.71c1.73 0 2.813-1.874 1.948-3.374L13.949 3.378c-.866-1.5-3.032-1.5-3.898 0L2.697 16.126ZM12 15.75h.007v.008H12v-.008Z" />
		</symbol>
		<symbol id="chevron-down" fill="none" viewBox="0 0 24 24" stroke-width="1.5" stroke="currentColor">
			<path stroke-linecap="round" stroke-linejoin="round" d="m19.5 8.25-7.5 7.5-7.5-7.5" />
		</symbol>
		<symbol id="moon" fill="none" viewBox="0 0 24 24" stroke-width="1.5" stroke="currentColor" stroke-linecap="round"
			stroke-linejoin="round">
			<path
				d="M21.752 15.002A9.72 9.72 0 0 1 18 15.75c-5.385 0-9.75-4.365-9.75-9.75 0-1.33.266-2.597.748-3.752A9.753 9.753 0 0 0 3 11.25C3 16.635 7.365 21 12.75 21a9.753 9.753 0 0 0 9.002-5.998Z" />
		</symbol>
		<symbol id="sun" fill="none" viewBox="0 0 24 24" stroke-width="1.5" stroke="currentColor" stroke-linecap="round"
			stroke-linejoin="round">
			<path
				d="M12 3v2.25m6.364.386-1.591 1.591M21 12h-2.25m-.386 6.364-1.591-1.591M12 18.75V21m-4.773-4.227-1.591 1.591M5.25 12H3m4.227-4.773L5.636 5.636M15.75 12a3.75 3.75 0 1 1-7.5 0 3.75 3.75 0 0 1 7.5 0Z" />
		</symbol>
		<symbol id="device" fill="none" viewBox="0 0 24 24" stroke-width="1.5" stroke="currentColor" stroke-linecap="round"
			stroke-linejoin="round">
			<path
				d="M9 17.25v1.007a3 3 0 0 1-.879 2.122L7.5 21h9l-.621-.621A3 3 0 0 1 15 18.257V17.25m6-12V15a2.25 2.25 0 0 1-2.25 2.25H5.25A2.25 2.25 0 0 1 3 15V5.25m18 0A2.25 2.25 0 0 0 18.75 3H5.25A2.25 2.25 0 0 0 3 5.25m18 0V12a2.25 2.25 0 0 1-2.25 2.25H5.25A2.25 2.25 0 0 1 3 12V5.25" />
		</symbol>
		<symbol id="contrast" viewBox="0 0 24 24" stroke-width="1.5" fill="none" stroke="currentColor"
			stroke-linecap="round" stroke-linejoin="round">
			<path d="M21 12a9 9 0 1 1-18 0 9 9 0 0 1 18 0z" />
			<path d="M12.02 7.02v9.96c3.02 0 5.46-2.23 5.46-4.98 0-2.75-2.44-4.98-5.46-4.98z" />
		</symbol>
		<symbol id="contrast-off" viewBox="0 0 24 24" fill="none" stroke-width="1.5" stroke="currentColor"
			stroke-linecap="round" stroke-linejoin="round">
			<path
				d="M18.3633 18.3613C19.9913 16.7327 21 14.4848 21 12c0-4.9706-4.0294-9-9-9-2.4848 0-4.7327 1.0086-6.3613 2.6367M3.877 8.1191C3.3146 9.2941 3 10.6104 3 12c0 4.9706 4.0294 9 9 9 1.3911 0 2.7088-.3154 3.8848-.879" />
			<path d="m3.0014 3 18 18m-5.4662-5.4668C16.4394 14.6285 17 13.3802 17 12c0-2.7614-2.2386-5-5-5v4.998" />
		</symbol>
	</defs>
</svg>