<svg xmlns="http://www.w3.org/2000/svg" width="0" height="0">
	<defs>
		<symbol id="errors" viewBox="0 0 24 24" fill="none" stroke="currentColor" stroke-width="1.5" stroke-linecap="round"
			stroke-linejoin="round">
			<circle cx="12" cy="12" r="10" />
			<path d="m15 9-6 6" />
			<path d="m9 9 6 6" />
		</symbol>
		<symbol id="pref" viewBox="0 0 24 24" fill="none" stroke="currentColor" stroke-width="1.5" stroke-linecap="round"
			stroke-linejoin="round">
			<path
				d="M12.22 2h-.44a2 2 0 0 0-2 2v.18a2 2 0 0 1-1 1.73l-.43.25a2 2 0 0 1-2 0l-.15-.08a2 2 0 0 0-2.73.73l-.22.38a2 2 0 0 0 .73 2.73l.15.1a2 2 0 0 1 1 1.72v.51a2 2 0 0 1-1 1.74l-.15.09a2 2 0 0 0-.73 2.73l.22.38a2 2 0 0 0 2.73.73l.15-.08a2 2 0 0 1 2 0l.43.25a2 2 0 0 1 1 1.73V20a2 2 0 0 0 2 2h.44a2 2 0 0 0 2-2v-.18a2 2 0 0 1 1-1.73l.43-.25a2 2 0 0 1 2 0l.15.08a2 2 0 0 0 2.73-.73l.22-.39a2 2 0 0 0-.73-2.73l-.15-.08a2 2 0 0 1-1-1.74v-.5a2 2 0 0 1 1-1.74l.15-.09a2 2 0 0 0 .73-2.73l-.22-.38a2 2 0 0 0-2.73-.73l-.15.08a2 2 0 0 1-2 0l-.43-.25a2 2 0 0 1-1-1.73V4a2 2 0 0 0-2-2z" />
			<circle cx="12" cy="12" r="3" />
		</symbol>
		<symbol id="quit" viewBox="0 0 24 24" fill="none" stroke="currentColor" stroke-width="1.5" stroke-linecap="round"
			stroke-linejoin="round">
			<path d="M18 6 6 18" />
			<path d="m6 6 12 12" />
		</symbol>
		<symbol id="cmd" viewBox="0 0 24 24" fill="none" stroke="currentColor" stroke-width="1.5" stroke-linecap="round"
			stroke-linejoin="round">
			<polyline points="4 17 10 11 4 5" />
			<line x1="12" x2="20" y1="19" y2="19" />
		</symbol>
		<symbol id="check" viewBox="0 0 24 24" fill="none" stroke="currentColor" stroke-width="1.5" stroke-linecap="round"
			stroke-linejoin="round">
			<path d="M20 6 9 17l-5-5" />
		</symbol>
		<symbol id="sync" viewBox="0 0 24 24" fill="none" stroke="currentColor" stroke-width="1.5" stroke-linecap="round"
			stroke-linejoin="round">
			<path d="M21 12a9 9 0 0 0-9-9 9.75 9.75 0 0 0-6.74 2.74L3 8" />
			<path d="M3 3v5h5" />
			<path d="M3 12a9 9 0 0 0 9 9 9.75 9.75 0 0 0 6.74-2.74L21 16" />
			<path d="M16 16h5v5" />
		</symbol>
		<symbol id="home" viewBox="0 0 24 24" fill="none" stroke="currentColor" stroke-width="1.5" stroke-linecap="round"
			stroke-linejoin="round">
			<path d="m3 9 9-7 9 7v11a2 2 0 0 1-2 2H5a2 2 0 0 1-2-2z" />
			<polyline points="9 22 9 12 15 12 15 22" />
		</symbol>
		<symbol id="play" viewBox="0 0 24 24" fill="none" stroke="currentColor" stroke-width="1.5" stroke-linecap="round"
			stroke-linejoin="round">
			<polygon points="5 3 19 12 5 21 5 3" />
		</symbol>
		<symbol id="pause" viewBox="0 0 24 24" fill="none" stroke="currentColor" stroke-width="1.5" stroke-linecap="round"
			stroke-linejoin="round">
			<rect width="4" height="16" x="6" y="4" />
			<rect width="4" height="16" x="14" y="4" />
		</symbol>
		<symbol id="save" viewBox="0 0 24 24" fill="none" stroke="currentColor" stroke-width="1.5" stroke-linecap="round"
			stroke-linejoin="round">
			<path d="M19 21H5a2 2 0 0 1-2-2V5a2 2 0 0 1 2-2h11l5 5v11a2 2 0 0 1-2 2z" />
			<polyline points="17 21 17 13 7 13 7 21" />
			<polyline points="7 3 7 8 15 8" />
		</symbol>
		<symbol id="warn" viewBox="0 0 24 24" fill="none" stroke="currentColor" stroke-width="1.5" stroke-linecap="round"
			stroke-linejoin="round">
			<path d="m21.73 18-8-14a2 2 0 0 0-3.48 0l-8 14A2 2 0 0 0 4 21h16a2 2 0 0 0 1.73-3Z" />
			<path d="M12 9v4" />
			<path d="M12 17h.01" />
		</symbol>
		<symbol id="chevron-down" viewBox="0 0 24 24" fill="none" stroke="currentColor" stroke-width="1.5"
			stroke-linecap="round" stroke-linejoin="round" class="lucide lucide-chevron-down">
			<path d="m6 9 6 6 6-6" />
		</symbol>
		<symbol id="moon" viewBox="0 0 24 24" fill="none" stroke="currentColor" stroke-width="1.5" stroke-linecap="round"
			stroke-linejoin="round">
			<path d="M12 3a6 6 0 0 0 9 9 9 9 0 1 1-9-9Z" />
		</symbol>
		<symbol id="sun" viewBox="0 0 24 24" fill="none" stroke="currentColor" stroke-width="1.5" stroke-linecap="round"
			stroke-linejoin="round">
			<circle cx="12" cy="12" r="4" />
			<path d="M12 2v2" />
			<path d="M12 20v2" />
			<path d="m4.93 4.93 1.41 1.41" />
			<path d="m17.66 17.66 1.41 1.41" />
			<path d="M2 12h2" />
			<path d="M20 12h2" />
			<path d="m6.34 17.66-1.41 1.41" />
			<path d="m19.07 4.93-1.41 1.41" />
		</symbol>
		<symbol id="device" viewBox="0 0 24 24" fill="none" stroke="currentColor" stroke-width="1.5" stroke-linecap="round"
			stroke-linejoin="round">
			<rect width="20" height="14" x="2" y="3" rx="2" />
			<line x1="8" x2="16" y1="21" y2="21" />
			<line x1="12" x2="12" y1="17" y2="21" />
		</symbol>
		<symbol id="contrast-on" width="24" height="24" viewBox="0 0 24 24" fill="none" stroke="currentColor"
			stroke-width="1.5" stroke-linecap="round" stroke-linejoin="round" class="lucide lucide-contrast">
			<circle cx="12" cy="12" r="10" />
			<path d="M12 18a6 6 0 0 0 0-12v12z" />
		</symbol>
		<symbol id="contrast-off" fill="none" stroke="currentColor" stroke-width="1.5" stroke-linecap="round"
			stroke-linejoin="round" class="lucide lucide-contrast" viewBox="0 0 24 24">
			<path
				d="m1.9996 2.004 20 20M12 12.004V18a6 6 0 0 0 4.2402-1.7559m1.6504-3.1718C18.5586 9.3946 15.7378 6.008 12 6v1.1816" />
			<path d="M8.3496 2.694a10 10 0 0 1 12.95 12.96m-2.22 3.43a10.0126 10.0126 0 1 1-14.16-14.16" />
		</symbol>
	</defs>
</svg>