<svg xmlns="http://www.w3.org/2000/svg" width="0" height="0">
	<defs>
		<symbol id="errors" viewBox="0 0 24 24" fill="none" stroke="currentColor" stroke-width="1.5" stroke-linecap="round"
			stroke-linejoin="round">
			<path stroke="none" d="M0 0h24v24H0z" fill="none" />
			<path d="M12 12m-9 0a9 9 0 1 0 18 0a9 9 0 1 0 -18 0" />
			<path d="M10 10l4 4m0 -4l-4 4" />
		</symbol>
		<symbol id="pref" viewBox="0 0 24 24" fill="none" stroke="currentColor" stroke-width="1.5" stroke-linecap="round"
			stroke-linejoin="round">
			<path stroke="none" d="M0 0h24v24H0z" fill="none" />
			<path
				d="M10.325 4.317c.426 -1.756 2.924 -1.756 3.35 0a1.724 1.724 0 0 0 2.573 1.066c1.543 -.94 3.31 .826 2.37 2.37a1.724 1.724 0 0 0 1.065 2.572c1.756 .426 1.756 2.924 0 3.35a1.724 1.724 0 0 0 -1.066 2.573c.94 1.543 -.826 3.31 -2.37 2.37a1.724 1.724 0 0 0 -2.572 1.065c-.426 1.756 -2.924 1.756 -3.35 0a1.724 1.724 0 0 0 -2.573 -1.066c-1.543 .94 -3.31 -.826 -2.37 -2.37a1.724 1.724 0 0 0 -1.065 -2.572c-1.756 -.426 -1.756 -2.924 0 -3.35a1.724 1.724 0 0 0 1.066 -2.573c-.94 -1.543 .826 -3.31 2.37 -2.37c1 .608 2.296 .07 2.572 -1.065z" />
			<path d="M9 12a3 3 0 1 0 6 0a3 3 0 0 0 -6 0" />
		</symbol>
		<symbol id="quit" viewBox="0 0 24 24" fill="none" stroke="currentColor" stroke-width="1.5" stroke-linecap="round"
			stroke-linejoin="round">
			<path stroke="none" d="M0 0h24v24H0z" fill="none" />
			<path d="M18 6l-12 12" />
			<path d="M6 6l12 12" />
		</symbol>
		<symbol id="cmd" viewBox="0 0 24 24" fill="none" stroke="currentColor" stroke-width="1.5" stroke-linecap="round"
			stroke-linejoin="round">
			<path stroke="none" d="M0 0h24v24H0z" fill="none" />
			<path d="M5 7l5 5l-5 5" />
			<path d="M13 17l6 0" />
		</symbol>
		<symbol id="check" viewBox="0 0 24 24" fill="none" stroke="currentColor" stroke-width="1.5" stroke-linecap="round"
			stroke-linejoin="round">
			<path stroke="none" d="M0 0h24v24H0z" fill="none" />
			<path d="M5 12l5 5l10 -10" />
		</symbol>
		<symbol id="sync" viewBox="0 0 24 24" fill="none" stroke="currentColor" stroke-width="1.5" stroke-linecap="round"
			stroke-linejoin="round">
			<path stroke="none" d="M0 0h24v24H0z" fill="none" />
			<path d="M20 11a8.1 8.1 0 0 0 -15.5 -2m-.5 -4v4h4" />
			<path d="M4 13a8.1 8.1 0 0 0 15.5 2m.5 4v-4h-4" />
		</symbol>
		<symbol id="home" viewBox="0 0 24 24" fill="none" stroke="currentColor" stroke-width="1.5" stroke-linecap="round"
			stroke-linejoin="round">
			<path stroke="none" d="M0 0h24v24H0z" fill="none" />
			<path d="M5 12l-2 0l9 -9l9 9l-2 0" />
			<path d="M5 12v7a2 2 0 0 0 2 2h10a2 2 0 0 0 2 -2v-7" />
			<path d="M9 21v-6a2 2 0 0 1 2 -2h2a2 2 0 0 1 2 2v6" />
		</symbol>
		<symbol id="play" viewBox="0 0 24 24" fill="none" stroke="currentColor" stroke-width="1.5" stroke-linecap="round"
			stroke-linejoin="round">
			<path stroke="none" d="M0 0h24v24H0z" fill="none" />
			<path d="M7 4v16l13 -8z" />
		</symbol>
		<symbol id="pause" viewBox="0 0 24 24" fill="none" stroke="currentColor" stroke-width="1.5" stroke-linecap="round"
			stroke-linejoin="round">
			<path stroke="none" d="M0 0h24v24H0z" fill="none" />
			<path d="M6 5m0 1a1 1 0 0 1 1 -1h2a1 1 0 0 1 1 1v12a1 1 0 0 1 -1 1h-2a1 1 0 0 1 -1 -1z" />
			<path d="M14 5m0 1a1 1 0 0 1 1 -1h2a1 1 0 0 1 1 1v12a1 1 0 0 1 -1 1h-2a1 1 0 0 1 -1 -1z" />
		</symbol>
		<symbol id="save" viewBox="0 0 24 24" fill="none" stroke="currentColor" stroke-width="1.5" stroke-linecap="round"
			stroke-linejoin="round">
			<path stroke="none" d="M0 0h24v24H0z" fill="none" />
			<path d="M6 4h10l4 4v10a2 2 0 0 1 -2 2h-12a2 2 0 0 1 -2 -2v-12a2 2 0 0 1 2 -2" />
			<path d="M12 14m-2 0a2 2 0 1 0 4 0a2 2 0 1 0 -4 0" />
			<path d="M14 4l0 4l-6 0l0 -4" />
		</symbol>
		<symbol id="warn" viewBox="0 0 24 24" fill="none" stroke="currentColor" stroke-width="1.5" stroke-linecap="round">
			<path stroke="none" d="M0 0h24v24H0z" fill="none" />
			<path d="M3 12a9 9 0 1 0 18 0a9 9 0 0 0 -18 0" />
			<path d="M12 8v4" />
			<path d="M12 16h.01" />
		</symbol>
		<symbol id="chevron-down" viewBox="0 0 24 24" fill="none" stroke="currentColor" stroke-width="1.5"
			stroke-linecap="round" stroke-linejoin="round">
			<path stroke="none" d="M0 0h24v24H0z" fill="none" />
			<path d="M6 9l6 6l6 -6" />
		</symbol>
		<symbol id="moon" viewBox="0 0 24 24" fill="none" stroke="currentColor" stroke-width="1.5" stroke-linecap="round"
			stroke-linejoin="round">
			<path stroke="none" d="M0 0h24v24H0z" fill="none" />
			<path d="M12 3c.132 0 .263 0 .393 0a7.5 7.5 0 0 0 7.92 12.446a9 9 0 1 1 -8.313 -12.454z" />
		</symbol>
		<symbol id="sun" viewBox="0 0 24 24" fill="none" stroke="currentColor" stroke-width="1.5" stroke-linecap="round"
			stroke-linejoin="round">
			<path stroke="none" d="M0 0h24v24H0z" fill="none" />
			<path d="M12 12m-4 0a4 4 0 1 0 8 0a4 4 0 1 0 -8 0" />
			<path d="M3 12h1m8 -9v1m8 8h1m-9 8v1m-6.4 -15.4l.7 .7m12.1 -.7l-.7 .7m0 11.4l.7 .7m-12.1 -.7l-.7 .7" />
		</symbol>
		<symbol id="device" viewBox="0 0 24 24" fill="none" stroke="currentColor" stroke-width="1.5" stroke-linecap="round"
			stroke-linejoin="round">
			<path stroke="none" d="M0 0h24v24H0z" fill="none" />
			<path d="M3 4a1 1 0 0 1 1 -1h16a1 1 0 0 1 1 1v12a1 1 0 0 1 -1 1h-16a1 1 0 0 1 -1 -1v-12z" />
			<path d="M3 13h18" />
			<path d="M8 21h8" />
			<path d="M10 17l-.5 4" />
			<path d="M14 17l.5 4" />
		</symbol>
		<symbol id="contrast-on" viewBox="0 0 24 24" fill="none" stroke="currentColor" stroke-width="1.5"
			stroke-linecap="round" stroke-linejoin="round">
			<path stroke="none" d="M0 0h24v24H0z" fill="none" />
			<path d="M12 12m-9 0a9 9 0 1 0 18 0a9 9 0 1 0 -18 0" />
			<path d="M12 17a5 5 0 0 0 0 -10v10" />
		</symbol>
		<symbol id="contrast-off" viewBox="0 0 24 24" fill="none" stroke="currentColor" stroke-width="1.5"
			stroke-linecap="round" stroke-linejoin="round">
			<path stroke="none" d="M0 0h24v24H0z" fill="none" />
			<path d="M12 12v5a4.984 4.984 0 0 0 3.522 -1.45m1.392 -2.623a5 5 0 0 0 -4.914 -5.927v1" />
			<path d="M5.641 5.631a9 9 0 1 0 12.719 12.738m1.68 -2.318a9 9 0 0 0 -12.074 -12.098" />
			<path d="M3 3l18 18" />
		</symbol>
		<symbol id="walk" viewBox="0 0 24 24" fill="none" stroke="currentColor" stroke-width="1.5" stroke-linecap="round"
			stroke-linejoin="round">
			<path stroke="none" d="M0 0h24v24H0z" fill="none" />
			<path d="M13 4m-1 0a1 1 0 1 0 2 0a1 1 0 1 0 -2 0" />
			<path d="M7 21l3 -4" />
			<path d="M16 21l-2 -4l-3 -3l1 -6" />
			<path d="M6 12l2 -3l4 -1l3 3l3 1" />
		</symbol>
		<symbol id="run" viewBox="0 0 24 24" fill="none" stroke="currentColor" stroke-width="1.5" stroke-linecap="round"
			stroke-linejoin="round">
			<path stroke="none" d="M0 0h24v24H0z" fill="none" />
			<path d="M13 4m-1 0a1 1 0 1 0 2 0a1 1 0 1 0 -2 0" />
			<path d="M4 17l5 1l.75 -1.5" />
			<path d="M15 21l0 -4l-4 -3l1 -6" />
			<path d="M7 12l0 -3l5 -1l3 3l3 1" />
		</symbol>
	</defs>
</svg>