<svg xmlns="http://www.w3.org/2000/svg" width="0" height="0">
	<defs>
		<symbol id="errors" viewBox="0 0 24 24" fill="none" stroke="currentColor" stroke-width="1.5" stroke-linecap="round"
			stroke-linejoin="round">
			<circle cx="12" cy="12" r="10" />
			<line x1="15" y1="9" x2="9" y2="15" />
			<line x1="9" y1="9" x2="15" y2="15" />
		</symbol>
		<symbol id="pref" viewBox="0 0 24 24" fill="none" stroke="currentColor" stroke-width="1.5" stroke-linecap="round"
			stroke-linejoin="round">
			<circle cx="12" cy="12" r="3" />
			<path
				d="M19.4 15a1.65 1.65 0 0 0 .33 1.82l.06.06a2 2 0 0 1 0 2.83 2 2 0 0 1-2.83 0l-.06-.06a1.65 1.65 0 0 0-1.82-.33 1.65 1.65 0 0 0-1 1.51V21a2 2 0 0 1-2 2 2 2 0 0 1-2-2v-.09A1.65 1.65 0 0 0 9 19.4a1.65 1.65 0 0 0-1.82.33l-.06.06a2 2 0 0 1-2.83 0 2 2 0 0 1 0-2.83l.06-.06a1.65 1.65 0 0 0 .33-1.82 1.65 1.65 0 0 0-1.51-1H3a2 2 0 0 1-2-2 2 2 0 0 1 2-2h.09A1.65 1.65 0 0 0 4.6 9a1.65 1.65 0 0 0-.33-1.82l-.06-.06a2 2 0 0 1 0-2.83 2 2 0 0 1 2.83 0l.06.06a1.65 1.65 0 0 0 1.82.33H9a1.65 1.65 0 0 0 1-1.51V3a2 2 0 0 1 2-2 2 2 0 0 1 2 2v.09a1.65 1.65 0 0 0 1 1.51 1.65 1.65 0 0 0 1.82-.33l.06-.06a2 2 0 0 1 2.83 0 2 2 0 0 1 0 2.83l-.06.06a1.65 1.65 0 0 0-.33 1.82V9a1.65 1.65 0 0 0 1.51 1H21a2 2 0 0 1 2 2 2 2 0 0 1-2 2h-.09a1.65 1.65 0 0 0-1.51 1z" />
		</symbol>
		<symbol id="quit" viewBox="0 0 24 24" fill="none" stroke="currentColor" stroke-width="1.5" stroke-linecap="round"
			stroke-linejoin="round">
			<line x1="18" y1="6" x2="6" y2="18" />
			<line x1="6" y1="6" x2="18" y2="18" />
		</symbol>
		<symbol id="cmd" viewBox="0 0 24 24" fill="none" stroke="currentColor" stroke-width="1.5" stroke-linecap="round"
			stroke-linejoin="round">
			<polyline points="4 17 10 11 4 5" />
			<line x1="12" y1="19" x2="20" y2="19" />
		</symbol>
		<symbol id="check" viewBox="0 0 24 24" fill="none" stroke="currentColor" stroke-width="1.5" stroke-linecap="round"
			stroke-linejoin="round">
			<polyline points="20 6 9 17 4 12" />
		</symbol>
		<symbol id="sync" viewBox="0 0 24 24" fill="none" stroke="currentColor" stroke-width="1.5" stroke-linecap="round"
			stroke-linejoin="round">
			<polyline points="1 4 1 10 7 10" />
			<polyline points="23 20 23 14 17 14" />
			<path d="M20.49 9A9 9 0 0 0 5.64 5.64L1 10m22 4l-4.64 4.36A9 9 0 0 1 3.51 15" />
		</symbol>
		<symbol id="home" viewBox="0 0 24 24" fill="none" stroke="currentColor" stroke-width="1.5" stroke-linecap="round"
			stroke-linejoin="round">
			<path d="M3 9l9-7 9 7v11a2 2 0 0 1-2 2H5a2 2 0 0 1-2-2z" />
			<polyline points="9 22 9 12 15 12 15 22" />
		</symbol>
		<symbol id="play" viewBox="0 0 24 24" fill="none" stroke="currentColor" stroke-width="1.5" stroke-linecap="round"
			stroke-linejoin="round">
			<polygon points="5 3 19 12 5 21 5 3" />
		</symbol>
		<symbol id="pause" viewBox="0 0 24 24" fill="none" stroke="currentColor" stroke-width="1.5" stroke-linecap="round"
			stroke-linejoin="round">
			<rect x="6" y="4" width="4" height="16" />
			<rect x="14" y="4" width="4" height="16" />
		</symbol>
		<symbol id="save" viewBox="0 0 24 24" fill="none" stroke="currentColor" stroke-width="1.5" stroke-linecap="round"
			stroke-linejoin="round">
			<path d="M19 21H5a2 2 0 0 1-2-2V5a2 2 0 0 1 2-2h11l5 5v11a2 2 0 0 1-2 2z" />
			<polyline points="17 21 17 13 7 13 7 21" />
			<polyline points="7 3 7 8 15 8" />
		</symbol>
	</defs>
</svg>