<svg xmlns="http://www.w3.org/2000/svg" fill="none" stroke-width="1.5" stroke="url(#a)" stroke-linecap="round"
	color="#000" viewBox="0 0 24 24">
	<defs>
		<linearGradient id="a" x1="0" x2="24" y1="0" y2="24" gradientUnits="userSpaceOnUse">
			<stop offset=".2" stop-color="#ffea72" />
			<stop offset=".6" stop-color="#ccffb5" />
			<stop offset=".9" stop-color="#a4f1ee" />
		</linearGradient>
	</defs>
	<path d="M14.1488 9.4716v-5.86c0-.89-.7215-1.6116-1.6115-1.6116v0c-.89 0-1.6115.7215-1.6115 1.6115v4.8346" />
	<path
		d="m16.346 12.841 2.1757-7.2524c.2538-.846-.2331-1.7361-1.0823-1.9788v0c-.8451-.2414-1.7252.2511-1.9615 1.0976l-1.3295 4.764m-6.5291-.2215 1.0556 2.3414c.3647.809.0067 1.7607-.8009 2.1287-.8122.3701-1.7705.0096-2.1374-.8041l-1.0555-2.3414c-.3647-.809-.0067-1.7607.8008-2.1288.8122-.3701 1.7706-.0096 2.1374.8041Z" />
	<path
		d="M11.7192 12.2615v0a2.3218 2.3218 0 0 0-.0674-1.7423l-1.0731-2.3805c-.3606-.7998-1.3026-1.1542-2.1009-.7903v0c-.8131.3705-1.159 1.34-.764 2.1415l.1357.2752" />
	<path
		d="m13.8566 17.6767.4921-.984a.1759.1759 0 0 0-.1077-.2473l-3.5507-1.0443a1.5367 1.5367 0 0 1-1.0947-1.6351v0c.0881-.8368.8328-1.4472 1.6706-1.3692l4.788.4454s3.809.586 2.4905 4.395c-1.3185 3.8091-1.758 5.1276-4.6881 5.1276h-4.981c-2.3465 0-4.2486-1.9021-4.2486-4.2485v0l-.1465-8.2042" />

</svg>