<svg xmlns="http://www.w3.org/2000/svg" width="24" height="24">
	<defs>
		<symbol id="heroicons" fill="none" stroke="#8B5CF6" stroke-width="1.5" viewBox="0 0 24 24">
			<path stroke-linecap="round" stroke-linejoin="round"
				d="M12 2.714C9.7357333 4.8642338 6.7202604 6.0435773 3.598 6 3.2007303 7.2102976 2.9988658 8.4761702 3 9.75c0 5.592 3.824 10.29 9 11.622 5.176-1.332 9-6.03 9-11.622 0-1.31-.21-2.57-.598-3.75h-.152c-3.196 0-6.1-1.25-8.25-3.286Z" />
		</symbol>
		<symbol id="iconoir" fill="none" stroke-width="1.5" stroke-linecap="round" color="#000" viewBox="0 0 24 24">
			<path d="M14.1488 9.4716v-5.86c0-.89-.7215-1.6116-1.6115-1.6116v0c-.89 0-1.6115.7215-1.6115 1.6115v4.8346" />
			<path
				d="m16.346 12.841 2.1757-7.2524c.2538-.846-.2331-1.7361-1.0823-1.9788v0c-.8451-.2414-1.7252.2511-1.9615 1.0976l-1.3295 4.764m-6.5291-.2215 1.0556 2.3414c.3647.809.0067 1.7607-.8009 2.1287-.8122.3701-1.7705.0096-2.1374-.8041l-1.0555-2.3414c-.3647-.809-.0067-1.7607.8008-2.1288.8122-.3701 1.7706-.0096 2.1374.8041Z" />
			<path
				d="M11.7192 12.2615v0a2.3218 2.3218 0 0 0-.0674-1.7423l-1.0731-2.3805c-.3606-.7998-1.3026-1.1542-2.1009-.7903v0c-.8131.3705-1.159 1.34-.764 2.1415l.1357.2752" />
			<path
				d="m13.8566 17.6767.4921-.984a.1759.1759 0 0 0-.1077-.2473l-3.5507-1.0443a1.5367 1.5367 0 0 1-1.0947-1.6351v0c.0881-.8368.8328-1.4472 1.6706-1.3692l4.788.4454s3.809.586 2.4905 4.395c-1.3185 3.8091-1.758 5.1276-4.6881 5.1276h-4.981c-2.3465 0-4.2486-1.9021-4.2486-4.2485v0l-.1465-8.2042" />
		</symbol>
		<symbol id="lucide" viewBox="0 0 24 24" fill="none" stroke="#000" stroke-width="2" stroke-linecap="round"
			stroke-linejoin="round">
			<path
				d="M14 12C14 9.79086 12.2091 8 10 8C7.79086 8 6 9.79086 6 12C6 16.4183 9.58172 20 14 20C18.4183 20 22 16.4183 22 12C22 8.446 20.455 5.25285 18 3.05557" />
			<path
				d="M10 12C10 14.2091 11.7909 16 14 16C16.2091 16 18 14.2091 18 12C18 7.58172 14.4183 4 10 4C5.58172 4 2 7.58172 2 12C2 15.5841 3.57127 18.8012 6.06253 21"
				stroke="#F56565" />
		</symbol>
		<symbol id="tabler" viewBox="0 0 24 24" fill="none" stroke="#0056ad" stroke-width="1.5" stroke-linecap="round"
			stroke-linejoin="round">
			<path stroke="none" d="M0 0h24v24H0z" fill="none" />
			<path d="M8 9l3 3l-3 3" />
			<path d="M13 15l3 0" />
			<path d="M4 4m0 4a4 4 0 0 1 4 -4h8a4 4 0 0 1 4 4v8a4 4 0 0 1 -4 4h-8a4 4 0 0 1 -4 -4z" />
		</symbol>
	</defs>
</svg>