<svg xmlns="http://www.w3.org/2000/svg" width="0" height="0">
	<defs>
		<symbol id="errors" width="24" height="24" viewBox="0 0 24 24" fill="none" stroke="currentColor" stroke-width="2"
			stroke-linecap="round" stroke-linejoin="round" class="lucide lucide-x-circle">
			<circle cx="12" cy="12" r="10" />
			<path d="m15 9-6 6" />
			<path d="m9 9 6 6" />
		</symbol>
		<symbol id="pref" width="24" height="24" viewBox="0 0 24 24" fill="none" stroke="currentColor" stroke-width="2"
			stroke-linecap="round" stroke-linejoin="round" class="lucide lucide-settings">
			<path
				d="M12.22 2h-.44a2 2 0 0 0-2 2v.18a2 2 0 0 1-1 1.73l-.43.25a2 2 0 0 1-2 0l-.15-.08a2 2 0 0 0-2.73.73l-.22.38a2 2 0 0 0 .73 2.73l.15.1a2 2 0 0 1 1 1.72v.51a2 2 0 0 1-1 1.74l-.15.09a2 2 0 0 0-.73 2.73l.22.38a2 2 0 0 0 2.73.73l.15-.08a2 2 0 0 1 2 0l.43.25a2 2 0 0 1 1 1.73V20a2 2 0 0 0 2 2h.44a2 2 0 0 0 2-2v-.18a2 2 0 0 1 1-1.73l.43-.25a2 2 0 0 1 2 0l.15.08a2 2 0 0 0 2.73-.73l.22-.39a2 2 0 0 0-.73-2.73l-.15-.08a2 2 0 0 1-1-1.74v-.5a2 2 0 0 1 1-1.74l.15-.09a2 2 0 0 0 .73-2.73l-.22-.38a2 2 0 0 0-2.73-.73l-.15.08a2 2 0 0 1-2 0l-.43-.25a2 2 0 0 1-1-1.73V4a2 2 0 0 0-2-2z" />
			<circle cx="12" cy="12" r="3" />
		</symbol>
		<symbol id="quit" width="24" height="24" viewBox="0 0 24 24" fill="none" stroke="currentColor" stroke-width="2"
			stroke-linecap="round" stroke-linejoin="round" class="lucide lucide-x">
			<path d="M18 6 6 18" />
			<path d="m6 6 12 12" />
		</symbol>
		<symbol id="cmd" width="24" height="24" viewBox="0 0 24 24" fill="none" stroke="currentColor" stroke-width="2"
			stroke-linecap="round" stroke-linejoin="round" class="lucide lucide-terminal">
			<polyline points="4 17 10 11 4 5" />
			<line x1="12" x2="20" y1="19" y2="19" />
		</symbol>
		<symbol id="check" width="24" height="24" viewBox="0 0 24 24" fill="none" stroke="currentColor" stroke-width="2"
			stroke-linecap="round" stroke-linejoin="round" class="lucide lucide-check">
			<path d="M20 6 9 17l-5-5" />
		</symbol>
		<symbol id="sync" width="24" height="24" viewBox="0 0 24 24" fill="none" stroke="currentColor" stroke-width="2"
			stroke-linecap="round" stroke-linejoin="round" class="lucide lucide-refresh-ccw">
			<path d="M21 12a9 9 0 0 0-9-9 9.75 9.75 0 0 0-6.74 2.74L3 8" />
			<path d="M3 3v5h5" />
			<path d="M3 12a9 9 0 0 0 9 9 9.75 9.75 0 0 0 6.74-2.74L21 16" />
			<path d="M16 16h5v5" />
		</symbol>
		<symbol id="home" width="24" height="24" viewBox="0 0 24 24" fill="none" stroke="currentColor" stroke-width="2"
			stroke-linecap="round" stroke-linejoin="round" class="lucide lucide-home">
			<path d="m3 9 9-7 9 7v11a2 2 0 0 1-2 2H5a2 2 0 0 1-2-2z" />
			<polyline points="9 22 9 12 15 12 15 22" />
		</symbol>
		<symbol id="play" width="24" height="24" viewBox="0 0 24 24" fill="none" stroke="currentColor" stroke-width="2"
			stroke-linecap="round" stroke-linejoin="round" class="lucide lucide-play">
			<polygon points="5 3 19 12 5 21 5 3" />
		</symbol>
		<symbol id="pause" width="24" height="24" viewBox="0 0 24 24" fill="none" stroke="currentColor" stroke-width="2"
			stroke-linecap="round" stroke-linejoin="round" class="lucide lucide-pause">
			<rect width="4" height="16" x="6" y="4" />
			<rect width="4" height="16" x="14" y="4" />
		</symbol>
		<symbol id="save" width="24" height="24" viewBox="0 0 24 24" fill="none" stroke="currentColor" stroke-width="2"
			stroke-linecap="round" stroke-linejoin="round" class="lucide lucide-save">
			<path d="M19 21H5a2 2 0 0 1-2-2V5a2 2 0 0 1 2-2h11l5 5v11a2 2 0 0 1-2 2z" />
			<polyline points="17 21 17 13 7 13 7 21" />
			<polyline points="7 3 7 8 15 8" />
		</symbol>
	</defs>
</svg>