<svg xmlns="http://www.w3.org/2000/svg" xmlns:xlink="http://www.w3.org/1999/xlink" viewBox="0 0 512 512"><defs><linearGradient id="a"><stop offset="0" style="stop-color:#b5aff8;stop-opacity:1"/><stop offset="1" style="stop-color:#27213c;stop-opacity:1"/></linearGradient><linearGradient id="b"><stop offset="0" style="stop-color:#27213c;stop-opacity:1"/><stop offset="1" style="stop-color:#3f3f59;stop-opacity:1"/></linearGradient><linearGradient xlink:href="#a" id="d" x1="256" x2="256" y1="0" y2="512" gradientUnits="userSpaceOnUse"/><linearGradient xlink:href="#a" id="c" x1="256" x2="256" y1="0" y2="512" gradientUnits="userSpaceOnUse"/><linearGradient xlink:href="#b" id="e" x1="488" x2="392" y1="488" y2="392" gradientTransform="translate(-16 -16)" gradientUnits="userSpaceOnUse"/></defs><g style="display:inline"><path d="M-256-24c-16.33768.0519-32.03697 6.34987-43.88086 17.60352l-186.51562 186.51562C-497.65012 191.96303-503.94815 207.66232-504 224c.0519 16.33768 6.34988 32.03697 17.60352 43.88086l186.51562 186.51562C-288.03697 465.65012-272.33768 471.94815-256 472c16.33768-.0519 32.03697-6.34988 43.88086-17.60352l186.515624-186.51562C-14.349873 256.03697-8.0518487 240.33768-8 224c-.051849-16.33768-6.349873-32.03697-17.603516-43.88086L-212.11914-6.39648C-223.96303-17.65013-239.66232-23.94815-256-24Z" style="fill:#0c0611;fill-opacity:.988235;stroke:url(#c);stroke-width:16;stroke-linecap:round;stroke-linejoin:round;stroke-miterlimit:15.6;stroke-dasharray:none;paint-order:markers stroke fill" transform="translate(512 32)"/><path d="m-409.14862 300.57404 229.72307-229.72256M-332.5743 377.14836l229.72307-229.72256m-.00023 153.14843L-332.57453 70.851671m153.14875 306.296879-229.72307-229.72256" style="fill:#3f3f59;fill-opacity:.990066;stroke:#3f3f59;stroke-width:16;stroke-linecap:round;stroke-linejoin:round;stroke-miterlimit:15.6;stroke-dasharray:none;stroke-opacity:.988235;paint-order:markers stroke fill" transform="translate(512 32)"/></g><g style="display:inline"><path d="M48 464V88H16V48c0-8.836556 7.163444-16 16-16h126c8.83656 0 16 7.163444 16 16v24c0 8.836556-7.16344 16-16 16h-19v264L372 88h-26c-8.83656 0-16-7.163444-16-16V32h150c8.83656 0 16 7.163444 16 16v40L135 488H72c-13.254834 0-24-10.74517-24-24Z" style="fill:url(#d);stroke:none;stroke-width:16;stroke-linecap:round;stroke-linejoin:round;stroke-miterlimit:15.6;stroke-opacity:.988235;paint-order:markers stroke fill"/></g><g style="display:inline"><path d="m399.42383 344.57617-54.84766 54.84766c1.26179 2.01806 2.74565 3.88845 4.42383 5.57617l72 72a33.941125 33.941125 0 0 0 48 0l8-8a33.941125 33.941125 0 0 0 0-48l-72-72c-1.68772-1.67818-3.55811-3.16204-5.57617-4.42383z" style="display:inline;fill:url(#e);stroke:none;stroke-width:16;stroke-linecap:round;stroke-linejoin:round;stroke-miterlimit:15.6;stroke-dasharray:none;stroke-opacity:1;paint-order:markers stroke fill"/><path d="M353.06673 326.93331 326.9333 353.0667l14.65068 40.28877c.77927 2.12322 1.78231 4.15746 2.99219 6.06836l54.84766-54.84766c-1.9109-1.20988-3.94514-2.21292-6.06836-2.99219z" style="display:inline;fill:#9b93cb;fill-opacity:.988235;stroke:none;stroke-width:16;stroke-linecap:round;stroke-linejoin:round;stroke-miterlimit:15.6;stroke-dasharray:none;stroke-opacity:1;paint-order:markers stroke fill"/><path d="M338.9668 332.19531a6.2003169 6.2003169 0 0 0-6.42578 8.29102l10.39257 28.58008 26.13282-26.13282-28.58008-10.39257a6.2003169 6.2003169 0 0 0-1.51953-.34571z" style="display:inline;fill:#3f3f59;fill-opacity:1;stroke:none;stroke-width:16;stroke-linecap:round;stroke-linejoin:round;stroke-miterlimit:15.6;stroke-dasharray:none;stroke-opacity:1;paint-order:markers stroke fill" transform="translate(-16 -16)"/></g></svg>